<svg xmlns="http://www.w3.org/2000/svg" version="1.1" xmlns:xlink="http://www.w3.org/1999/xlink" xmlns:svgjs="http://svgjs.com/svgjs" width="1920" height="595" preserveAspectRatio="none" viewBox="0 0 1920 595"><g mask="url(&quot;#SvgjsMask1001&quot;)" fill="none"><rect width="1920" height="595" x="0" y="0" fill="rgba(0, 32, 60, 1)"></rect><path d="M0 5.32C0.04 2.48 -0.74 0.1 2.04 0C73.76 -2.56 75.52 0 149 0C223.5 0 223.5 0 298 0C372.5 0 372.5 0 447 0C521.5 0 521.5 0 596 0C670.5 0 670.5 0 745 0C819.5 0 819.5 0 894 0C968.5 0 968.5 0 1043 0C1117.5 0 1117.5 0 1192 0C1219.09 0 1220.43 -6.76 1246.18 0C1294.93 12.8 1299.18 10.61 1341 39.11C1408.5 85.11 1421.9 83.01 1464.82 149C1496.4 197.56 1453.21 258.76 1490 268.2C1540.3 281.11 1563.29 196.94 1639 193.7C1712.29 190.56 1716.51 262.58 1788 255.43C1865.51 247.68 1894.83 151.85 1937 163.9C1969.33 173.14 1937 230.95 1937 298C1937 372.5 1937 372.5 1937 447C1937 521.5 1974.25 558.75 1937 596C1899.75 633.25 1862.5 596 1788 596C1713.5 596 1713.5 596 1639 596C1582.16 596 1558.51 626.53 1525.33 596C1484.01 557.99 1508.31 458.92 1490 458.92C1471.6 458.92 1493.78 557.49 1451.92 596C1419.28 626.03 1396.46 596 1341 596C1279.38 596 1269.57 612.49 1217.75 596C1195.07 588.78 1208.26 569.96 1192 548.59C1151.56 495.46 1144.4 500.59 1104.35 447C1069.9 400.9 1070.72 349.22 1043 349.22C1017.04 349.22 1007.92 395.15 996.99 447C981.91 518.54 1022.17 550.86 990.97 596C970.68 625.36 942.49 596 894 596C843.09 596 839.51 606.96 792.18 596C765.01 589.7 768.32 561.48 745 561.48C722.62 561.48 726.75 589.98 700.77 596C652.25 607.24 648.38 596 596 596C521.5 596 521.5 596 447 596C372.5 596 372.5 596 298 596C223.5 596 223.5 596 149 596C74.5 596 37.25 633.25 0 596C-37.25 558.75 0 521.5 0 447C0 378.71 -1.02 378.62 0 310.42C0.09 304.12 2.22 304.09 2.22 298C2.22 295.22 0.04 295.55 0 292.68C-1.07 221.05 0 220.84 0 149C0 77.16 -0.98 76.98 0 5.32" stroke="rgba(37, 70, 125, 0.5803921568627451)" stroke-width="2"></path><path d="M298 130.37C288.34 133.04 288.39 139.11 288.39 149C288.39 168.29 290.63 169.73 298 188.73C319.54 244.23 346.21 245.03 346.21 298C346.21 338.69 322.61 337.35 298 376.05C275.23 411.85 251.44 414.77 251.44 447C251.44 470.38 269.5 479.41 298 487.27C367.28 506.38 382.09 514.92 447 500.95C475.67 494.78 464.37 472.64 485.16 447C538.87 380.75 533.18 370.74 596 317.16C620.53 296.24 659.86 307.99 659.86 298C659.86 287.93 621.26 297.85 596 277.05C530.79 223.35 535.69 214.47 478.93 149C461.19 128.54 470.89 107.64 447 105.18C380.42 98.32 367.64 111.13 298 130.37" stroke="rgba(37, 70, 125, 0.5803921568627451)" stroke-width="2"></path><path d="M745 132.44C734.98 132.44 724.05 137.57 724.05 149C724.05 177.78 735.49 212.86 745 212.86C754.34 212.86 761.76 178.63 761.76 149C761.76 138.42 753.84 132.44 745 132.44" stroke="rgba(37, 70, 125, 0.5803921568627451)" stroke-width="2"></path><path d="M1639 140.4C1566.3 105.52 1523.11 42.89 1523.11 0C1523.11 -27.31 1581.05 0 1639 0C1713.5 0 1713.5 0 1788 0C1862.5 0 1898.32 -35.82 1937 0C1972.82 33.16 1972.77 107.45 1937 137.96C1898.27 171 1862.45 126.48 1788 127.09C1713.45 127.7 1698.74 169.06 1639 140.4" stroke="rgba(37, 70, 125, 0.5803921568627451)" stroke-width="2"></path><path d="M1341 276.41C1325.66 276.41 1320.42 282.71 1316.17 298C1296.71 368.01 1284.45 382.66 1293.59 447C1296.86 470.03 1315.33 472.75 1341 472.75C1404.23 472.75 1444.44 488.07 1471.38 447C1501.75 400.7 1492.28 345.96 1455.62 298C1427.09 260.67 1395.38 276.41 1341 276.41" stroke="rgba(37, 70, 125, 0.5803921568627451)" stroke-width="2"></path><path d="M0 138.36C24.76 68.85 7.85 41.99 53.07 0C82.35 -27.19 101.03 0 149 0C223.5 0 223.5 0 298 0C372.5 0 372.5 0 447 0C521.5 0 521.5 0 596 0C670.5 0 670.5 0 745 0C819.5 0 819.5 0 894 0C918.84 0 920.99 -8.36 943.67 0C995.49 19.09 989.55 47.02 1043 54.89C1113.71 65.3 1119.14 29.02 1192 36.55C1268.14 44.41 1272.49 50.71 1341 85.67C1382.66 106.93 1412.35 116.02 1412.35 149C1412.35 184.39 1378.24 187.36 1341 222.42C1299.1 261.86 1282.16 250.25 1254.08 298C1216.13 362.54 1235.83 375.09 1208.93 447C1204.79 458.06 1200.15 463.93 1192 463.93C1184.38 463.93 1182.95 456.67 1177.39 447C1135.2 373.7 1142.77 368.21 1096.49 298C1075.57 266.26 1075.31 243.11 1043 243.11C983.38 243.11 936.93 248.84 912.63 298C886.53 350.79 937.37 371.87 942.21 447C946.97 520.87 951.07 536.56 931.84 596C926.97 611.06 912.92 596 894 596C874.13 596 871.17 605.07 854.27 596C796.67 565.09 799.01 516.05 745 516.05C693.16 516.05 697.41 566.57 642.56 596C622.91 606.54 619.28 596 596 596C521.5 596 521.5 596 447 596C372.5 596 372.5 596 298 596C223.5 596 223.5 596 149 596C74.5 596 43.31 627.19 0 596C-31.19 573.55 -30.83 517.11 0 488.72C43.67 448.49 84.15 437.17 149 458.76C233.15 486.78 213.55 557.79 298 587.95C362.55 611 387.67 601.12 447 565.17C503.97 530.65 486.66 504.43 530.59 447C561.16 407.03 553.42 392.42 596 370.37C660.63 336.91 671.04 355.23 745 335.98C810.1 319.04 859.81 340.3 874.13 298C891.47 246.81 850.07 217.4 808.32 149C785.51 111.63 778.39 86.46 745 86.46C707.15 86.46 703.48 115.55 665.84 149C628.98 181.74 630.14 218.84 596 218.84C563.29 218.84 561.61 185.93 532.14 149C487.11 92.58 504.44 65.27 447 32.14C387.37 -2.25 352.34 -15.07 298 13.97C242.99 43.36 237.78 78.08 228.31 149C218.82 220.1 278.37 231.59 260.07 298C238.71 375.51 201.28 436.84 149 436.84C100.16 436.84 96.97 370.84 57.82 298C22.47 232.24 26.99 229.2 0 159.64C-1.92 154.7 0 154.32 0 149C0 143.68 -1.78 143.35 0 138.36" stroke="rgba(37, 70, 125, 0.5803921568627451)" stroke-width="2"></path><path d="M1639 68.77C1600.49 55.24 1582.24 21.01 1582.24 0C1582.24 -13.37 1610.62 0 1639 0C1713.5 0 1713.5 0 1788 0C1862.5 0 1886.08 -23.58 1937 0C1960.58 10.91 1960.57 57.54 1937 68.98C1886.07 93.7 1862.5 72.36 1788 72.31C1713.5 72.26 1703.37 91.39 1639 68.77" stroke="rgba(37, 70, 125, 0.5803921568627451)" stroke-width="2"></path><path d="M1885.78 298C1905.25 272.09 1921.24 257.03 1937 257.03C1946.85 257.03 1937 277.51 1937 298C1937 372.5 1937 372.5 1937 447C1937 495.95 1962.79 544.91 1937 544.91C1891.4 544.91 1806.95 508.42 1794.21 447C1781.34 384.96 1833.86 367.08 1885.78 298" stroke="rgba(37, 70, 125, 0.5803921568627451)" stroke-width="2"></path><path d="M1538.96 447C1557.52 383.68 1584.21 339.26 1639 339.26C1705.69 339.26 1749.44 377.33 1781.92 447C1809.29 505.7 1798.53 554.47 1758.69 596C1727.07 628.97 1698.85 596 1639 596C1601.36 596 1580.37 620.78 1563.73 596C1530.35 546.28 1519.89 512.05 1538.96 447" stroke="rgba(37, 70, 125, 0.5803921568627451)" stroke-width="2"></path><path d="M1263.74 596C1263.74 573.37 1303.39 518.74 1341 518.74C1376.78 518.74 1410.53 572.85 1410.53 596C1410.53 611.48 1375.76 596 1341 596C1302.37 596 1263.74 612 1263.74 596" stroke="rgba(37, 70, 125, 0.5803921568627451)" stroke-width="2"></path><path d="M110.55 149C108.22 74.47 89.32 57.26 104.1 0C108.55 -17.24 126.55 0 149 0C186.25 0 220.43 -23.78 223.5 0C230.05 50.72 176.22 72.58 168.23 149C160.64 221.58 198.94 228.4 192.35 298C189.32 329.99 169.4 352.18 149 352.18C129.94 352.18 119.25 328.79 113.42 298C100.02 227.2 112.88 223.47 110.55 149" stroke="rgba(37, 70, 125, 0.5803921568627451)" stroke-width="2"></path><path d="M585.36 149C549.11 75.72 512.95 50.2 516.53 0C518.27 -24.3 556.26 0 596 0C670.5 0 670.5 0 745 0C785.97 0 826.95 -9.57 826.95 0C826.95 10.67 782.61 14.92 745 40.47C672.96 89.42 675.74 94.08 607.64 149C601.24 154.16 601.69 160.64 596 160.64C590.55 160.64 588.84 156.04 585.36 149" stroke="rgba(37, 70, 125, 0.5803921568627451)" stroke-width="2"></path><path d="M854.89 149C854.89 109.37 861.96 68.77 894 68.77C952.63 68.77 1036.23 110.66 1036.23 149C1036.23 186.33 954.03 220.11 894 220.11C863.36 220.11 854.89 185.04 854.89 149" stroke="rgba(37, 70, 125, 0.5803921568627451)" stroke-width="2"></path><path d="M1052.31 149C1052.31 109.17 1121.1 110.95 1192 106.83C1265.44 102.57 1269.07 114.17 1341 132.24C1353.02 135.26 1359.89 140.27 1359.89 149C1359.89 158.37 1351.13 159.44 1341 168.43C1267.19 233.94 1262.95 302.78 1192 298C1118.61 293.06 1052.31 204.75 1052.31 149" stroke="rgba(37, 70, 125, 0.5803921568627451)" stroke-width="2"></path><path d="M1788 17.53C1721.72 17.53 1655.56 4.4 1655.56 0C1655.56 -4.36 1721.78 0 1788 0C1862.5 0 1937 -4.37 1937 0C1937 4.4 1862.44 17.53 1788 17.53" stroke="rgba(37, 70, 125, 0.5803921568627451)" stroke-width="2"></path><path d="M576.01 447C576.01 432.67 581.59 426.83 596 423.59C666.08 407.84 671.91 402.68 745 409.02C806.94 414.39 866.06 431.38 866.06 447C866.06 462.18 802.06 448.98 745 470.62C667.03 500.2 648.18 556.73 596 549.44C563.69 544.92 576.01 495.59 576.01 447" stroke="rgba(37, 70, 125, 0.5803921568627451)" stroke-width="2"></path><path d="M1592.17 447C1597.99 415.54 1613.35 396.57 1639 396.57C1670.22 396.57 1695.36 411.15 1705.9 447C1724.67 510.86 1721.64 542.51 1697.62 596C1688.19 617.01 1668.31 596 1639 596C1620.57 596 1606.77 610.75 1602.13 596C1583.35 536.25 1579.55 515.26 1592.17 447" stroke="rgba(37, 70, 125, 0.5803921568627451)" stroke-width="2"></path><path d="M1871.81 447C1871.81 407.89 1918.97 357.6 1937 357.6C1951.57 357.6 1937 402.3 1937 447C1937 469.35 1948.77 491.7 1937 491.7C1916.18 491.7 1871.81 474.94 1871.81 447" stroke="rgba(37, 70, 125, 0.5803921568627451)" stroke-width="2"></path><path d="M0 563.22C61.08 547.15 79.71 545.09 149 556.79C176.78 561.48 194.15 584.83 194.15 596C194.15 604.43 171.57 596 149 596C74.5 596 61.07 609.43 0 596C-13.43 593.04 -13.42 566.75 0 563.22" stroke="rgba(37, 70, 125, 0.5803921568627451)" stroke-width="2"></path><path d="M1309.73 596C1309.73 586.84 1325.78 564.73 1341 564.73C1355.48 564.73 1369.14 586.63 1369.14 596C1369.14 602.27 1355.07 596 1341 596C1325.36 596 1309.73 602.48 1309.73 596" stroke="rgba(37, 70, 125, 0.5803921568627451)" stroke-width="2"></path></g><defs><mask id="SvgjsMask1001"><rect width="1920" height="595" fill="#ffffff"></rect></mask></defs></svg>