<svg xmlns="http://www.w3.org/2000/svg" version="1.1" xmlns:xlink="http://www.w3.org/1999/xlink" xmlns:svgjs="http://svgjs.com/svgjs" width="1440" height="560" preserveAspectRatio="none" viewBox="0 0 1440 560"><g mask="url(&quot;#SvgjsMask1151&quot;)" fill="none"><rect width="1440" height="560" x="0" y="0" fill="#1e3266"></rect><path d="M1560 560L0 560 L0 417.77Q68.84 366.61, 120 435.45Q197.12 392.56, 240 469.68Q263.01 372.69, 360 395.7Q370.29 333.99, 432 344.27Q486.13 278.4, 552 332.53Q599.43 307.96, 624 355.4Q708.62 320.02, 744 404.64Q787.49 328.13, 864 371.62Q891.5 327.13, 936 354.63Q1023.21 321.84, 1056 409.05Q1146.57 379.62, 1176 470.19Q1178.53 352.72, 1296 355.25Q1318.53 305.78, 1368 328.31Q1423.17 311.49, 1440 366.66Q1550.33 356.99, 1560 467.31z" fill="#182f5d"></path><path d="M1512 560L0 560 L0 448.86Q41.85 418.71, 72 460.56Q174.83 443.39, 192 546.23Q193.95 476.18, 264 478.13Q306.25 400.38, 384 442.63Q475.51 414.14, 504 505.66Q587.88 469.54, 624 553.42Q628.7 486.12, 696 490.82Q761.43 436.25, 816 501.69Q918.22 483.91, 936 586.13Q948.29 478.42, 1056 490.71Q1070.75 433.45, 1128 448.2Q1202.29 402.49, 1248 476.78Q1301.1 457.88, 1320 510.98Q1387.62 506.6, 1392 574.21Q1406.8 469.01, 1512 483.81z" fill="#25467d"></path></g><defs><mask id="SvgjsMask1151"><rect width="1440" height="560" fill="#ffffff"></rect></mask></defs></svg>